<svg width="21" height="24" viewBox="0 0 21 24" fill="none" xmlns="http://www.w3.org/2000/svg">
<path fill-rule="evenodd" clip-rule="evenodd" d="M10.7895 0.0324097C12.7135 0.0324097 14.2946 0.682902 15.3693 1.30592C16.8241 2.14871 17.3823 3.73428 17.3823 5.14954V7.0285C17.8185 7.30649 18.2251 7.5779 18.5855 7.82843L19.2063 8.26685L19.3162 8.34596C19.637 8.57744 19.9531 8.81625 20.2644 9.06238C20.7325 9.43598 20.8139 10.1392 20.4381 10.6084C20.256 10.8358 19.9911 10.9815 19.7016 11.0137C19.4121 11.0458 19.1217 10.9617 18.8942 10.7798C18.4026 10.3927 17.8983 10.0218 17.3823 9.66782V17.1584C17.3823 18.4447 16.8713 19.6784 15.9617 20.5879C15.0521 21.4975 13.8185 22.0085 12.5322 22.0085H9.04676C7.76043 22.0085 6.52678 21.4975 5.61721 20.5879C4.70763 19.6784 4.19664 18.4447 4.19664 17.1584V9.66782C3.6835 10.0238 3.17475 10.3897 2.68578 10.7798C2.45818 10.962 2.16755 11.0462 1.87782 11.0141C1.5881 10.9819 1.323 10.836 1.14087 10.6084C0.958728 10.3808 0.874463 10.0902 0.90661 9.80044C0.938756 9.51071 1.08468 9.24562 1.31228 9.06348C1.62434 8.81808 1.94116 8.57891 2.26274 8.34596L2.73084 8.01083C3.15278 7.71415 3.65163 7.37572 4.19664 7.0296V5.14954C4.19664 3.73318 4.75483 2.14871 6.20965 1.30592C7.28428 0.682902 8.86656 0.0324097 10.7895 0.0324097ZM15.1847 10.3766C14.5155 11.0457 14.0859 11.8764 14.0859 12.8412V16.5145C14.0859 17.0973 13.8543 17.6563 13.4422 18.0684C13.0301 18.4805 12.4711 18.7121 11.8883 18.7121H9.69066C9.10782 18.7121 8.54885 18.4805 8.13672 18.0684C7.72459 17.6563 7.49305 17.0973 7.49305 16.5145V12.8412C7.49305 11.8764 7.06342 11.0457 6.39425 10.3766V17.1584C6.39425 17.5067 6.46286 17.8516 6.59616 18.1734C6.72946 18.4953 6.92484 18.7877 7.17115 19.034C7.41746 19.2803 7.70987 19.4757 8.03169 19.609C8.35351 19.7423 8.69843 19.8109 9.04676 19.8109H12.5322C12.8805 19.8109 13.2254 19.7423 13.5472 19.609C13.8691 19.4757 14.1615 19.2803 14.4078 19.034C14.6541 18.7877 14.8495 18.4953 14.9828 18.1734C15.1161 17.8516 15.1847 17.5067 15.1847 17.1584V10.3766ZM10.7895 2.23002C9.36432 2.23002 8.16332 2.71349 7.31175 3.20795C6.74916 3.5321 6.39425 4.23314 6.39425 5.14844V5.76377C6.79092 5.56049 7.19528 5.3693 7.59854 5.19899C8.62922 4.76606 9.75 4.42763 10.7895 4.42763C11.8289 4.42763 12.9497 4.76606 13.9804 5.20009C14.3837 5.3704 14.788 5.56159 15.1847 5.76377V5.14844C15.1847 4.23424 14.8298 3.5332 14.2672 3.20686C13.4156 2.71349 12.2146 2.23002 10.7895 2.23002Z" fill="white"/>
</svg>
