<svg width="24" height="23" viewBox="0 0 24 23" fill="none" xmlns="http://www.w3.org/2000/svg">
<g clip-path="url(#clip0_536_2466)">
<path d="M16.4959 9.6962C18.0561 9.6962 19.3209 8.43141 19.3209 6.8712C19.3209 5.311 18.0561 4.0462 16.4959 4.0462C14.9357 4.0462 13.6709 5.311 13.6709 6.8712C13.6709 8.43141 14.9357 9.6962 16.4959 9.6962Z" stroke="white" stroke-width="2.11875" stroke-linecap="round" stroke-linejoin="round"/>
<path d="M7.07939 19.1128C8.6396 19.1128 9.90439 17.848 9.90439 16.2878C9.90439 14.7276 8.6396 13.4628 7.07939 13.4628C5.51919 13.4628 4.25439 14.7276 4.25439 16.2878C4.25439 17.848 5.51919 19.1128 7.07939 19.1128Z" stroke="white" stroke-width="2.11875" stroke-linecap="round" stroke-linejoin="round"/>
<path d="M13.6711 13.4629H19.3211V18.1712C19.3211 18.4209 19.2219 18.6605 19.0453 18.8371C18.8687 19.0137 18.6291 19.1129 18.3794 19.1129H14.6127C14.363 19.1129 14.1235 19.0137 13.9469 18.8371C13.7703 18.6605 13.6711 18.4209 13.6711 18.1712V13.4629ZM4.25439 4.0462H9.90439V8.75454C9.90439 9.00428 9.80518 9.2438 9.62859 9.4204C9.45199 9.59699 9.21247 9.6962 8.96273 9.6962H5.19606C4.94632 9.6962 4.7068 9.59699 4.5302 9.4204C4.35361 9.2438 4.25439 9.00428 4.25439 8.75454V4.0462Z" stroke="white" stroke-width="2.11875" stroke-linecap="round" stroke-linejoin="round"/>
</g>
<defs>
<clipPath id="clip0_536_2466">
<rect width="22.6" height="22.6" fill="white" transform="translate(0.487305 0.279541)"/>
</clipPath>
</defs>
</svg>
