<svg width="18" height="18" viewBox="0 0 18 18" fill="none" xmlns="http://www.w3.org/2000/svg">
<mask id="mask0_536_2458" style="mask-type:alpha" maskUnits="userSpaceOnUse" x="0" y="0" width="18" height="18">
<rect x="0.3125" y="0.748291" width="16.95" height="16.95" fill="#D9D9D9"/>
</mask>
<g mask="url(#mask0_536_2458)">
<path d="M8.72622 0.751212C8.69865 0.756183 8.67143 0.762922 8.64473 0.771389C8.49755 0.804325 8.36636 0.887196 8.27352 1.00588C8.18067 1.12457 8.13192 1.27172 8.13558 1.42227V2.07315H2.26827C1.74957 2.07315 1.25211 2.27888 0.885331 2.64507C0.518554 3.01126 0.3125 3.50792 0.3125 4.0258L0.3125 12.4873C0.3125 13.5651 1.18868 14.4399 2.26827 14.4399H8.13558V14.684L4.59042 16.4537C4.43377 16.5293 4.31359 16.6638 4.25631 16.8278C4.19903 16.9918 4.20935 17.1718 4.28499 17.3282C4.36064 17.4846 4.49541 17.6046 4.65967 17.6618C4.82392 17.719 5.0042 17.7087 5.16085 17.6331L8.13558 16.1485V16.3926C8.13558 16.5652 8.20426 16.7307 8.32652 16.8528C8.44878 16.9749 8.6146 17.0434 8.7875 17.0434C8.9604 17.0434 9.12622 16.9749 9.24848 16.8528C9.37074 16.7307 9.43942 16.5652 9.43942 16.3926V16.1485L12.4141 17.6331C12.5708 17.7087 12.7511 17.719 12.9153 17.6618C13.0796 17.6046 13.2144 17.4846 13.29 17.3282C13.3657 17.1718 13.376 16.9918 13.3187 16.8278C13.2614 16.6638 13.1412 16.5293 12.9846 16.4537L9.43942 14.684V14.4399H15.3067C16.3863 14.4399 17.2625 13.5651 17.2625 12.4873V4.0258C17.2625 3.50792 17.0564 3.01126 16.6897 2.64507C16.3229 2.27888 15.8254 2.07315 15.3067 2.07315H9.43942V1.42227C9.44272 1.32971 9.42618 1.23752 9.39094 1.15185C9.35569 1.06618 9.30254 0.989013 9.23503 0.925493C9.16752 0.861974 9.08721 0.81357 8.99947 0.783515C8.91172 0.753461 8.81857 0.742448 8.72622 0.751212ZM1.61635 4.0258H15.9587V12.4873H1.61635V4.0258ZM13.9214 4.67668C13.7754 4.69235 13.6389 4.7568 13.5342 4.85958L11.3952 6.99577L9.90816 5.50981C9.83694 5.43685 9.74957 5.3816 9.65307 5.34851C9.55656 5.31541 9.45363 5.3054 9.35254 5.31926C9.25146 5.33313 9.15504 5.37049 9.07106 5.42834C8.98707 5.4862 8.91786 5.56292 8.86899 5.65235L6.93343 9.02913L6.13874 7.03548C6.10015 6.93254 6.03607 6.84103 5.9525 6.7695C5.86892 6.69796 5.76856 6.64871 5.66077 6.62636C5.55299 6.60401 5.44128 6.60927 5.33608 6.64165C5.23088 6.67404 5.13561 6.7325 5.05915 6.81157L3.10338 8.76422C3.04174 8.82572 2.99284 8.89874 2.95946 8.97911C2.92609 9.05947 2.90889 9.14562 2.90886 9.23262C2.90883 9.31963 2.92597 9.40578 2.95929 9.48618C2.99261 9.56657 3.04146 9.63962 3.10306 9.70116C3.16465 9.7627 3.23779 9.81153 3.31829 9.84485C3.39879 9.87818 3.48507 9.89534 3.57221 9.89537C3.65935 9.8954 3.74565 9.8783 3.82617 9.84503C3.90669 9.81176 3.97986 9.76299 4.0415 9.70149L5.28407 8.46091L6.22153 10.7793C6.26578 10.8956 6.34247 10.9968 6.44252 11.0709C6.54257 11.145 6.6618 11.189 6.78609 11.1975C6.91038 11.2061 7.03452 11.1789 7.14382 11.1192C7.25312 11.0595 7.343 10.9698 7.40282 10.8607L9.58285 7.05696L10.9271 8.39972C10.9879 8.46252 11.0607 8.51245 11.1413 8.54656C11.2218 8.58066 11.3084 8.59824 11.3958 8.59824C11.4833 8.59824 11.5699 8.58066 11.6504 8.54656C11.731 8.51245 11.8038 8.46252 11.8646 8.39972L14.4723 5.7962C14.5753 5.70101 14.6447 5.57519 14.6703 5.43743C14.696 5.29967 14.6764 5.15733 14.6145 5.03157C14.5526 4.90581 14.4518 4.80335 14.3269 4.73941C14.202 4.67547 14.0598 4.65347 13.9214 4.67668Z" fill="white"/>
</g>
</svg>
