<svg width="22" height="23" viewBox="0 0 22 23" fill="none" xmlns="http://www.w3.org/2000/svg">
<path d="M14.591 4.73098C14.0693 4.73098 13.8083 4.73098 13.5707 4.64279C13.5376 4.63054 13.5052 4.61707 13.4731 4.60239C13.2427 4.49669 13.0583 4.31221 12.6893 3.94327C11.8401 3.09409 11.4155 2.6695 10.8931 2.63035C10.8229 2.62509 10.7523 2.62509 10.6821 2.63035C10.1597 2.6695 9.73502 3.09409 8.88589 3.94326C8.51694 4.31221 8.33247 4.49669 8.10206 4.60239C8.07005 4.61707 8.03751 4.63054 8.00451 4.64279C7.76684 4.73098 7.50595 4.73098 6.98419 4.73098H6.88794C5.55674 4.73098 4.89114 4.73098 4.4776 5.14453C4.06404 5.55807 4.06405 6.22367 4.06405 7.55487V7.65112C4.06405 8.17288 4.06405 8.43377 3.97586 8.67144C3.96361 8.70445 3.95014 8.73699 3.93545 8.76899C3.82976 8.9994 3.64528 9.18387 3.27633 9.55282C2.42716 10.402 2.00257 10.8266 1.96342 11.349C1.95816 11.4192 1.95816 11.4898 1.96342 11.56C2.00257 12.0825 2.42716 12.507 3.27633 13.3562C3.64528 13.7252 3.82976 13.9096 3.93545 14.14C3.95014 14.1721 3.96361 14.2046 3.97586 14.2376C4.06405 14.4753 4.06405 14.7362 4.06405 15.258V15.3542C4.06405 16.6854 4.06404 17.351 4.4776 17.7645C4.89114 18.1781 5.55674 18.1781 6.88794 18.1781H6.98419C7.50595 18.1781 7.76684 18.1781 8.00451 18.2663C8.03751 18.2785 8.07005 18.292 8.10206 18.3067C8.33247 18.4124 8.51694 18.5968 8.88589 18.9658C9.73502 19.8149 10.1597 20.2396 10.6821 20.2787C10.7523 20.284 10.8228 20.284 10.8931 20.2787C11.4155 20.2396 11.8401 19.8149 12.6893 18.9658C13.0583 18.5968 13.2427 18.4124 13.4731 18.3067C13.5052 18.292 13.5376 18.2785 13.5707 18.2663C13.8083 18.1781 14.0693 18.1781 14.591 18.1781H14.6872C16.0184 18.1781 16.6841 18.1781 17.0976 17.7645C17.5112 17.351 17.5112 16.6854 17.5112 15.3542V15.258C17.5112 14.7362 17.5112 14.4753 17.5994 14.2376C17.6116 14.2046 17.6251 14.1721 17.6397 14.14C17.7455 13.9096 17.9299 13.7252 18.2988 13.3562C19.148 12.507 19.5726 12.0825 19.6118 11.56C19.6171 11.4898 19.6171 11.4192 19.6118 11.349C19.5726 10.8266 19.148 10.402 18.2988 9.55282C17.9299 9.18387 17.7455 8.9994 17.6397 8.76899C17.6251 8.73699 17.6116 8.70445 17.5994 8.67144C17.5112 8.43377 17.5112 8.17288 17.5112 7.65112V7.55487C17.5112 6.22367 17.5112 5.55807 17.0976 5.14453C16.6841 4.73098 16.0184 4.73098 14.6872 4.73098H14.591Z" stroke="white" stroke-width="1.76562"/>
<path d="M13.8774 11.4545C13.8774 13.161 12.4941 14.5444 10.7876 14.5444C9.08112 14.5444 7.69775 13.161 7.69775 11.4545C7.69775 9.74805 9.08112 8.36469 10.7876 8.36469C12.4941 8.36469 13.8774 9.74805 13.8774 11.4545Z" stroke="white" stroke-width="1.76562"/>
</svg>
