<svg width="18" height="18" viewBox="0 0 18 18" fill="none" xmlns="http://www.w3.org/2000/svg">
<path d="M16.6632 6.65448C17.677 5.64067 17.2147 4.45654 16.6632 3.88069L14.2299 1.44755C13.2079 0.433743 12.0319 0.89604 11.456 1.44755L10.0771 2.83444H7.97641C6.43534 2.83444 5.54314 3.64549 5.08893 4.5782L1.48769 8.17925V11.4234L0.911817 11.9912C-0.102045 13.0131 0.360276 14.1891 0.911817 14.7649L3.34509 17.1981C3.78308 17.6361 4.25351 17.7983 4.69961 17.7983C5.27548 17.7983 5.80269 17.5144 6.11901 17.1981L8.30896 15.0002H11.2208C12.5996 15.0002 13.2972 14.1404 13.5486 13.297C14.4651 13.0536 14.968 12.3561 15.1708 11.6749C16.428 11.3504 16.8984 10.1582 16.8984 9.32282V6.88968H16.4199L16.6632 6.65448ZM15.2762 9.32282C15.2762 9.68779 15.1221 10.1339 14.4651 10.1339H13.654V10.9449C13.654 11.3099 13.4999 11.756 12.843 11.756H12.0319V12.567C12.0319 12.932 11.8778 13.3781 11.2208 13.3781H7.64386L4.98349 16.0383C4.73205 16.2735 4.58605 16.1356 4.49683 16.0464L2.07168 13.6295C1.83646 13.3781 1.97435 13.2321 2.06356 13.1429L3.10987 12.0885V8.8443L4.73205 7.22221V8.51177C4.73205 9.49314 5.38092 10.9449 7.16532 10.9449C8.94972 10.9449 9.59859 9.49314 9.59859 8.51177H15.2762V9.32282ZM15.5114 5.50279L14.1326 6.88968H7.97641V8.51177C7.97641 8.87675 7.8223 9.32282 7.16532 9.32282C6.50834 9.32282 6.35423 8.87675 6.35423 8.51177V6.07863C6.35423 5.70555 6.49212 4.45654 7.97641 4.45654H10.7422L12.5915 2.60735C12.843 2.37215 12.9889 2.51002 13.0782 2.59924L15.5033 5.01616C15.7385 5.26759 15.6007 5.41357 15.5114 5.50279Z" fill="white"/>
</svg>
