<svg width="18" height="19" viewBox="0 0 18 19" fill="none" xmlns="http://www.w3.org/2000/svg">
<rect x="0.331055" y="0.296875" width="17.6562" height="18.3625" rx="2.825" fill="#FF3D00"/>
<path d="M8.73733 4.98981C8.27654 5.0104 7.82323 5.1223 7.40355 5.32039C6.98635 5.51719 6.60651 5.78989 6.28272 6.12432C5.95644 6.45747 5.70114 6.85622 5.53301 7.29742C5.35742 7.75148 5.28145 8.24027 5.31009 8.72778C5.33998 9.20242 5.45082 9.66677 5.63887 10.1015C5.82816 10.535 6.09094 10.9299 6.41722 11.2656C6.74101 11.6014 7.12583 11.8689 7.54925 12.0528L11.705 13.7315C11.9678 13.8446 12.2629 13.8421 12.5232 13.7237C12.781 13.6105 12.9815 13.3932 13.0799 13.123C13.1858 12.8542 13.182 12.5519 13.0687 12.2857C12.9591 12.013 12.7437 11.8007 12.4759 11.7004L11.1782 11.1769C11.4124 11.0341 11.6216 10.8514 11.7959 10.6353C11.9528 10.4385 12.0786 10.2173 12.1695 9.97934C12.3476 9.51756 12.4323 9.02234 12.4186 8.52455C12.4037 8.05248 12.2991 7.58941 12.111 7.15979C11.9205 6.73145 11.6527 6.34428 11.3239 6.01756C10.9827 5.67669 10.578 5.40915 10.1346 5.23292C9.69127 5.05156 9.2143 4.96795 8.73733 4.98853V4.98981ZM10.2118 9.14711C10.2081 9.1574 10.2044 9.1664 10.2006 9.17669L10.1981 9.18184C10.1284 9.36707 10.025 9.53814 9.89178 9.68221C9.63274 9.96519 9.27408 10.1273 8.89673 10.1311C8.69872 10.1337 8.50195 10.0964 8.31889 10.0205C8.13831 9.94847 7.97392 9.84042 7.8332 9.7015C7.69745 9.56901 7.5891 9.40951 7.51438 9.23329C7.43966 9.05707 7.39981 8.8667 7.39856 8.67504C7.39607 8.47567 7.43094 8.27886 7.50193 8.09364C7.57042 7.90841 7.67379 7.73991 7.80704 7.59841C7.93532 7.46335 8.08725 7.35402 8.25537 7.27813C8.42723 7.20095 8.61279 7.15722 8.7996 7.15079C8.99387 7.14178 9.1869 7.17651 9.36748 7.24983C10.1072 7.5341 10.4846 8.38434 10.2106 9.1484L10.2118 9.14711Z" fill="white"/>
</svg>
