<svg width="82" height="29" viewBox="0 0 82 29" fill="none" xmlns="http://www.w3.org/2000/svg">
<path d="M17.8422 23.8711H6.8039C4.89936 23.8711 3.35596 22.3209 3.35596 20.4081V9.32061C3.35596 7.40778 4.89936 5.85767 6.8039 5.85767H17.8434C19.748 5.85767 21.2914 7.40778 21.2914 9.32061V20.4069C21.2914 22.3184 19.7505 23.8698 17.846 23.8711H17.8434H17.8422Z" fill="#FF3D00"/>
<path d="M12.039 10.3297C11.5627 10.3499 11.0942 10.4596 10.6605 10.6538C10.2293 10.8467 9.8367 11.114 9.50205 11.4419C9.16483 11.7685 8.90097 12.1594 8.72721 12.5919C8.54573 13.037 8.46721 13.5162 8.49682 13.9941C8.52771 14.4594 8.64226 14.9147 8.83661 15.3409C9.03226 15.7658 9.30384 16.153 9.64106 16.4821C9.97571 16.8112 10.3734 17.0735 10.811 17.2538L15.1062 18.8994C15.3777 19.0104 15.6828 19.0078 15.9518 18.8918C16.2182 18.7809 16.4254 18.5678 16.5271 18.303C16.6365 18.0394 16.6327 17.7431 16.5155 17.482C16.4023 17.2147 16.1796 17.0067 15.9029 16.9083L14.5617 16.3951C14.8037 16.2551 15.0199 16.076 15.2001 15.8642C15.3623 15.6713 15.4923 15.4544 15.5862 15.2211C15.7703 14.7684 15.8578 14.2829 15.8437 13.7949C15.8282 13.3321 15.7201 12.8782 15.5258 12.457C15.3288 12.0371 15.0521 11.6575 14.7123 11.3372C14.3596 11.0031 13.9413 10.7408 13.4831 10.568C13.0249 10.3902 12.5319 10.3083 12.039 10.3284V10.3297ZM13.5629 14.4052C13.559 14.4153 13.5552 14.4241 13.5513 14.4342L13.5487 14.4393C13.4767 14.6209 13.3698 14.7886 13.2321 14.9298C12.9644 15.2072 12.5937 15.3661 12.2037 15.3699C11.9991 15.3724 11.7957 15.3358 11.6065 15.2614C11.4199 15.1908 11.25 15.0849 11.1045 14.9487C10.9642 14.8188 10.8522 14.6625 10.775 14.4897C10.6978 14.317 10.6566 14.1303 10.6553 13.9424C10.6527 13.747 10.6888 13.5541 10.7621 13.3725C10.8329 13.1909 10.9398 13.0257 11.0775 12.887C11.2101 12.7546 11.3671 12.6474 11.5408 12.573C11.7185 12.4973 11.9102 12.4545 12.1033 12.4482C12.3041 12.4393 12.5036 12.4734 12.6902 12.5453C13.4548 12.8239 13.8448 13.6575 13.5616 14.4065L13.5629 14.4052Z" fill="white"/>
<path d="M25.2129 6.1355L25.2129 23.594" stroke="white" stroke-width="0.523755"/>
<path d="M29.1338 6.65283H32.9583C35.5551 6.65283 36.8308 8.08412 36.8308 10.7085V12.3256C36.8308 14.9524 35.5551 16.3813 32.9583 16.3813H31.7306V23.0638H29.1338V6.65283ZM32.9583 14.0403C33.7856 14.0403 34.234 13.664 34.234 12.4923V10.5466C34.234 9.3749 33.7856 8.99862 32.9583 8.99862H31.7306V14.0403H32.9583Z" fill="white"/>
<path d="M38.2397 6.65222H40.8366V23.0656H38.2397V6.65222Z" fill="white"/>
<path d="M44.7748 6.65283H48.2924L50.9851 23.0662H48.3883L47.9159 19.8083V19.8559H44.9642L44.4918 23.0686H42.082L44.7748 6.65521V6.65283ZM47.6066 17.6268L46.4509 9.51303H46.4029L45.2687 17.6268H47.6066Z" fill="white"/>
<path d="M51.7163 19.1768V18.2385H54.1717V19.3649C54.1717 20.5367 54.6896 20.9582 55.5193 20.9582C56.3489 20.9582 56.8644 20.5367 56.8644 19.3173C56.8644 17.9575 56.3465 17.0882 54.6464 15.6141C52.474 13.7136 51.7667 12.3776 51.7667 10.5034C51.7667 7.92418 53.1118 6.42383 55.6391 6.42383C58.1664 6.42383 59.4157 7.92418 59.4157 10.551V11.2321H56.9603V10.3867C56.9603 9.21496 56.488 8.76961 55.6631 8.76961C54.8383 8.76961 54.3635 9.21496 54.3635 10.3414C54.3635 11.5369 54.9078 12.4038 56.6079 13.8827C58.7803 15.7808 59.4637 17.0954 59.4637 19.1339C59.4637 21.8084 58.0945 23.3087 55.5456 23.3087C52.9967 23.3087 51.7211 21.8084 51.7211 19.1816L51.7163 19.1768Z" fill="white"/>
<path d="M60.4961 19.1768V18.2385H62.9515V19.3649C62.9515 20.5367 63.4718 20.9582 64.299 20.9582C65.1263 20.9582 65.6442 20.5367 65.6442 19.3173C65.6442 17.9575 65.1263 17.0882 63.4262 15.6141C61.2538 13.7136 60.5464 12.3776 60.5464 10.5034C60.5464 7.92418 61.8916 6.42383 64.4165 6.42383C66.9414 6.42383 68.1931 7.92418 68.1931 10.551V11.2321H65.7401V10.3867C65.7401 9.21496 65.2677 8.76961 64.4405 8.76961C63.6133 8.76961 63.1409 9.21496 63.1409 10.3414C63.1409 11.5369 63.6852 12.4038 65.3852 13.8827C67.5577 15.7808 68.241 17.0954 68.241 19.1339C68.241 21.8084 66.8719 23.3087 64.323 23.3087C61.7741 23.3087 60.4985 21.8084 60.4985 19.1816L60.4961 19.1768Z" fill="white"/>
<path d="M71.6576 6.65222H75.1752L77.868 23.0656H75.2711L74.7988 19.8077V19.8553H71.8471L71.3747 23.068H68.9673L71.6576 6.6546V6.65222ZM74.4895 17.6262L73.3337 9.51242H73.2858L72.1516 17.6262H74.4895Z" fill="white"/>
</svg>
